<svg width="80" height="80" viewBox="0 0 80 80" fill="none" xmlns="http://www.w3.org/2000/svg">
<path d="M66.6671 0H13.3329C9.80026 0.0112076 6.41548 1.41952 3.9175 3.9175C1.41952 6.41548 0.0112076 9.80026 0 13.3329V66.6671C0 73.9973 6.00269 80 13.3329 80H66.6671C73.9973 80 80 73.9973 80 66.6671V13.3329C80 6.00269 73.9973 0 66.6671 0ZM59.3744 56.1868C58.7084 57.7927 57.6523 59.2071 56.3018 60.3019C54.8942 61.4344 53.1242 62.372 50.9366 63.037C48.7615 63.7145 46.1714 64.052 43.1639 64.052H21.7307V17.383H44.4014C48.594 17.383 51.9541 18.3206 54.4667 20.2481C57.0068 22.1757 58.2568 25.0658 58.2568 28.9459C58.2568 31.3035 57.6843 33.3085 56.5368 34.9736C55.3892 36.6386 53.7367 37.9287 51.6016 38.8287V38.9862C54.4542 39.5862 56.6543 40.9388 58.0993 43.0363C59.5444 45.1339 60.2994 47.789 60.2994 50.9916C60.3013 52.7375 59.9607 54.4669 59.2969 56.0818L59.3744 56.1718V56.1868ZM50.1166 44.6889C48.7615 43.4389 46.834 42.8263 44.3614 42.8263H29.9459V57.3843H44.3989C46.859 57.3843 48.799 56.7468 50.1666 55.4567C51.5341 54.1667 52.2241 52.3316 52.2241 49.9866C52.1991 47.6815 51.5341 45.8989 50.1666 44.6864H50.1016L50.1166 44.6889ZM48.124 35.2736C49.439 34.1536 50.0891 32.551 50.0891 30.456C50.0891 28.1109 49.504 26.4458 48.319 25.4958C47.1465 24.5458 45.4539 24.0508 43.2289 24.0508H29.8959V36.9287H43.2289C45.1689 36.9287 46.8365 36.3561 48.1115 35.2761L48.124 35.2736Z" fill="#563D7C"/>
</svg>
