<svg width="56" height="56" viewBox="0 0 56 56" fill="none" xmlns="http://www.w3.org/2000/svg">
<path d="M42 28C39.4115 28 36.7682 28.2552 34.0703 28.7656C33.0859 25.9583 31.974 23.3333 30.7344 20.8906C34.125 19.2865 37.1419 17.263 39.7852 14.8203C42.4284 12.3776 44.5156 9.64323 46.0469 6.61719C49.1458 9.24219 51.5794 12.4141 53.3477 16.1328C55.1159 19.8516 56 23.8073 56 28C56 28.6927 55.9635 29.513 55.8906 30.4609C51.4427 28.8203 46.8125 28 42 28ZM29.0391 17.8281C25.138 11.0833 20.4896 6.19792 15.0938 3.17188C19.1406 1.05729 23.4427 0 28 0C33.5052 0 38.5729 1.49479 43.2031 4.48438C41.8177 7.32812 39.9128 9.89844 37.4883 12.1953C35.0638 14.4922 32.2474 16.3698 29.0391 17.8281ZM25.8672 19.0312C22.0391 20.3438 18.0833 21 14 21C9.77083 21 5.63281 20.2708 1.58594 18.8125C3.51823 13.2708 6.85417 8.76823 11.5938 5.30469C17.1354 7.78385 21.8932 12.3594 25.8672 19.0312ZM14 24.5C18.7396 24.5 23.2604 23.7161 27.5625 22.1484C28.7292 24.4818 29.7865 26.9609 30.7344 29.5859C25.5573 31.0807 21.0456 33.487 17.1992 36.8047C13.3529 40.1224 10.5547 43.9688 8.80469 48.3438C6.03385 45.7552 3.8737 42.7018 2.32422 39.1836C0.77474 35.6654 0 31.9375 0 28C0 26.0312 0.200521 24.0807 0.601562 22.1484C5.01302 23.7161 9.47917 24.5 14 24.5ZM31.7734 32.9219C33.8151 39.849 34.8724 47.2318 34.9453 55.0703C32.612 55.6901 30.2969 56 28 56C22.0208 56 16.5885 54.2318 11.7031 50.6953C13.0885 46.5391 15.5586 42.8932 19.1133 39.7578C22.668 36.6224 26.888 34.3438 31.7734 32.9219ZM35.1641 32.1562C37.4609 31.7188 39.7396 31.5 42 31.5C46.5938 31.5 51.0417 32.3385 55.3438 34.0156C54.3594 38.5365 52.3633 42.5651 49.3555 46.1016C46.3477 49.638 42.7109 52.263 38.4453 53.9766C38.263 46.2109 37.1693 38.9375 35.1641 32.1562Z" fill="#EFB960"/>
</svg>
