<svg width="71" height="80" viewBox="0 0 71 80" fill="none" xmlns="http://www.w3.org/2000/svg">
<path d="M0 0L6.34615 71.7885L35.2692 80L64.0769 71.7885L70.5481 0H0ZM57.2115 17.0288L56.75 21.5673L56.5865 23.4423H22.7981L23.5865 32.5H55.8077L55.4904 34.8365L53.4519 58.125L53.2885 59.6827L35.3077 64.6442V64.6731H35.1923L35.1635 64.6827V64.6731H35.1538L17.0192 59.6731L15.9231 45.7692H24.6827L25.3077 52.8077L35.1538 55.4712H35.1923L45 52.8173L46.0961 41.4135H35.1635V41.4038H15.4615L13.2692 17.0288L13.1058 14.6923H57.3654L57.2115 17.0288Z" fill="#E34C26"/>
</svg>
