<svg width="80" height="80" viewBox="0 0 80 80" fill="none" xmlns="http://www.w3.org/2000/svg">
<path d="M0 0H80V80H0V0ZM73.4444 60.92C72.8622 57.2711 70.4845 54.2044 63.4356 51.3422C60.9822 50.1911 58.2578 49.3956 57.44 47.5467C57.1378 46.4444 57.0933 45.8489 57.2889 45.1956C57.7911 43.0444 60.3422 42.4 62.3422 42.9956C63.6445 43.3956 64.8445 44.3956 65.5956 46C69.04 43.7467 69.04 43.7467 71.4445 42.2489C70.5422 40.8533 70.0933 40.2444 69.4933 39.6444C67.3911 37.2978 64.5911 36.0978 60.0444 36.2L57.6978 36.4978C55.4445 37.0489 53.2933 38.2533 51.9956 39.8489C48.1956 44.1511 49.2933 51.6489 53.8933 54.7556C58.44 58.1556 65.0978 58.9022 65.9467 62.1022C66.7467 66.0044 63.0489 67.2533 59.3911 66.8045C56.6933 66.2 55.1911 64.8533 53.5422 62.3511L47.4444 65.8533C48.1422 67.4489 48.9422 68.1511 50.1422 69.5511C55.9422 75.4 70.4444 75.1022 73.0444 66.2C73.1378 65.9022 73.8444 63.8533 73.2933 60.7022L73.4444 60.92ZM43.5022 36.7689H36.0089C36.0089 43.2267 35.9778 49.6489 35.9778 56.12C35.9778 60.2267 36.1867 63.9956 35.5156 65.1556C34.4178 67.4533 31.5778 67.16 30.2933 66.7511C28.9733 66.1022 28.3022 65.2 27.5244 63.9022C27.3156 63.5556 27.16 63.2533 27.1022 63.2533L21.0222 67.0044C22.04 69.1067 23.5244 70.9111 25.44 72.0578C28.2889 73.76 32.1156 74.3111 36.1244 73.4133C38.7378 72.6578 40.9911 71.1067 42.16 68.7067C43.8667 65.6089 43.5022 61.8044 43.4889 57.5556C43.5244 50.7067 43.4889 43.8533 43.4889 36.9556L43.5022 36.7689Z" fill="#F0DB4F"/>
</svg>
