<svg width="50" height="50" viewBox="0 0 50 50" fill="none" xmlns="http://www.w3.org/2000/svg">
<path d="M6.00934 12.0187C9.32821 12.0187 12.0187 9.32821 12.0187 6.00934C12.0187 2.69047 9.32821 0 6.00934 0C2.69047 0 0 2.69047 0 6.00934C0 9.32821 2.69047 12.0187 6.00934 12.0187Z" fill="#EFB960"/>
<path d="M17.6929 16.5725V49.9122H28.0444V33.425C28.0444 29.0746 28.8629 24.8614 34.257 24.8614C39.577 24.8614 39.6429 29.8353 39.6429 33.6997V49.915H49.9999V31.6315C49.9999 22.6505 48.0664 15.7485 37.5693 15.7485C32.5295 15.7485 29.1513 18.5143 27.7698 21.1317H27.6297V16.5725H17.6929V16.5725ZM0.823853 16.5725H11.1919V49.9122H0.823853V16.5725Z" fill="#EFB960"/>
</svg>
