<svg width="80" height="80" viewBox="0 0 80 80" fill="none" xmlns="http://www.w3.org/2000/svg">
<rect width="80" height="80" rx="14" fill="#222222"/>
<g clip-path="url(#clip0_25_7)">
<path d="M59.3308 30.3022C58.6923 30.0832 58.0483 29.8802 57.3996 29.6936C57.5086 29.2483 57.6089 28.8084 57.6979 28.3762C59.1599 21.2792 58.2042 15.5618 54.9397 13.6793C51.8096 11.8747 46.6908 13.7565 41.5211 18.2556C41.0116 18.6999 40.5134 19.1569 40.027 19.6262C39.7013 19.3141 39.37 19.0081 39.033 18.7082C33.6148 13.8975 28.184 11.87 24.923 13.7579C21.7958 15.5681 20.8698 20.9429 22.186 27.6689C22.317 28.335 22.4648 28.9977 22.6295 29.6563C21.8607 29.8747 21.119 30.1072 20.4091 30.3547C14.0567 32.5695 10 36.0403 10 39.6405C10 43.3587 14.3551 47.0883 20.9713 49.3497C21.5077 49.5323 22.0486 49.7015 22.5934 49.8571C22.4164 50.5665 22.2593 51.2806 22.1223 51.9988C20.8675 58.608 21.8474 63.8557 24.9661 65.6545C28.1873 67.5121 33.5937 65.603 38.8579 61.0011C39.2848 60.627 39.7022 60.2423 40.1099 59.8473C40.6367 60.3556 41.1775 60.849 41.7318 61.3271C46.8312 65.715 51.8673 67.4868 54.983 65.6831C58.2011 63.8201 59.2471 58.1826 57.8892 51.3238C57.7822 50.7864 57.6623 50.2518 57.5294 49.7202C57.9091 49.6077 58.2818 49.4919 58.645 49.3715C65.5233 47.0927 69.9986 43.4084 69.9986 39.6405C69.9986 36.0272 65.8109 32.533 59.3308 30.3022V30.3022ZM57.839 46.9387C57.5109 47.0472 57.1744 47.152 56.8312 47.2539C56.0719 44.85 55.0472 42.294 53.7931 39.6529C54.9898 37.0748 55.9751 34.5514 56.7131 32.1631C57.3269 32.3408 57.9225 32.528 58.4967 32.7256C64.0489 34.6371 67.4355 37.4629 67.4355 39.6405C67.4355 41.9598 63.778 44.9707 57.839 46.9387V46.9387ZM55.3749 51.8216C55.9753 54.8543 56.0609 57.5964 55.6632 59.7402C55.306 61.6665 54.5874 62.9506 53.6987 63.4651C51.808 64.5596 47.7644 63.1369 43.4035 59.3842C42.888 58.9397 42.3849 58.4809 41.8949 58.0085C43.5856 56.1595 45.2752 54.0101 46.9242 51.6228C49.8248 51.3655 52.565 50.9446 55.05 50.3701C55.1724 50.8639 55.2811 51.3481 55.3749 51.8216V51.8216ZM30.4548 63.2759C28.6075 63.9282 27.1362 63.9469 26.2467 63.4341C24.3542 62.3427 23.5674 58.1289 24.6406 52.4769C24.7682 51.809 24.9142 51.1448 25.0786 50.485C27.5362 51.0287 30.2566 51.4196 33.1639 51.6554C34.8242 53.9914 36.5625 56.1384 38.3144 58.0185C37.9421 58.3788 37.561 58.7298 37.1714 59.0713C34.8434 61.1061 32.5107 62.5498 30.4548 63.2759V63.2759ZM21.8005 46.9244C18.8749 45.9244 16.4588 44.6248 14.8027 43.2066C13.3145 41.9324 12.5633 40.667 12.5633 39.6405C12.5633 37.4557 15.8203 34.669 21.2528 32.7751C21.9121 32.5454 22.602 32.3286 23.318 32.1252C24.069 34.5673 25.0538 37.1207 26.2423 39.7028C25.0383 42.323 24.0394 44.9173 23.2813 47.3882C22.7839 47.2458 22.2902 47.0911 21.8005 46.9244V46.9244ZM24.7015 27.1764C23.574 21.414 24.3228 17.0672 26.2074 15.9762C28.2145 14.8142 32.653 16.4709 37.3312 20.6249C37.6363 20.8964 37.9364 21.1734 38.2314 21.4557C36.4882 23.3276 34.7658 25.4588 33.1203 27.7809C30.2985 28.0424 27.5974 28.4624 25.114 29.0252C24.961 28.4126 24.8235 27.7962 24.7015 27.1767V27.1764ZM50.5823 33.5672C49.9957 32.554 49.3874 31.5536 48.7577 30.5666C50.672 30.8087 52.5062 31.13 54.2286 31.5228C53.7116 33.1803 53.067 34.913 52.3084 36.6895C51.7539 35.6374 51.1784 34.5964 50.5823 33.5672V33.5672ZM40.0281 23.2876C41.2103 24.5684 42.3943 25.9983 43.5589 27.5498C41.1965 27.4382 38.8301 27.4378 36.4676 27.5484C37.6333 26.0112 38.8275 24.5832 40.0281 23.2876ZM29.4063 33.5848C28.8176 34.6057 28.2529 35.6402 27.7125 36.6874C26.9662 34.9172 26.3276 33.1765 25.8061 31.4956C27.5179 31.1127 29.3435 30.7996 31.2456 30.5619C30.6089 31.5549 29.9956 32.5628 29.4063 33.5846V33.5848ZM31.3002 48.9013C29.335 48.682 27.4821 48.385 25.7707 48.0124C26.3004 46.3015 26.9531 44.5238 27.7155 42.7156C28.258 43.7636 28.8251 44.7987 29.4163 45.8201C30.0243 46.8701 30.6538 47.8985 31.3002 48.9013ZM40.0989 56.1738C38.8839 54.8632 37.6722 53.4132 36.4889 51.8537C37.6378 51.8987 38.8089 51.9217 39.9993 51.9217C41.2222 51.9217 42.4311 51.8942 43.621 51.8413C42.4527 53.4289 41.2731 54.881 40.0989 56.1738ZM52.3325 42.6233C53.1345 44.4514 53.8105 46.2197 54.3472 47.9013C52.6077 48.2983 50.7294 48.618 48.7504 48.8554C49.3846 47.8501 49.9987 46.8322 50.5923 45.8025C51.1959 44.7558 51.7761 43.6958 52.3325 42.6233V42.6233ZM48.3722 44.5219C47.4633 46.1007 46.5034 47.6495 45.4939 49.1659C43.6652 49.2954 41.8325 49.3598 39.9993 49.3588C38.1321 49.3588 36.3159 49.3007 34.5671 49.1873C33.5312 47.6744 32.553 46.1228 31.6344 44.536H31.6346C30.7204 42.9575 29.8665 41.3449 29.0746 39.7016C29.8644 38.058 30.7158 36.4446 31.6269 34.8649L31.6267 34.8652C32.5374 33.2851 33.5079 31.7402 34.5359 30.2338C36.3202 30.0988 38.1499 30.0285 39.9991 30.0285H39.9993C41.8569 30.0285 43.689 30.0995 45.4728 30.2354C46.4904 31.7396 47.4547 33.2792 48.3637 34.8513C49.2778 36.4275 50.1405 38.033 50.9502 39.6653C50.1488 41.3143 49.2889 42.9342 48.3722 44.5219V44.5219ZM53.6595 15.8998C55.6685 17.0585 56.4499 21.7311 55.1876 27.8587C55.107 28.2496 55.0165 28.6478 54.9181 29.0516C52.4286 28.477 49.7256 28.0497 46.8956 27.7842C45.2471 25.4365 43.5387 23.3021 41.8239 21.4543C42.2733 21.0211 42.7334 20.5991 43.2038 20.1887C47.6334 16.334 51.7733 14.8121 53.6595 15.8998V15.8998ZM39.9993 34.2828C42.9582 34.2828 45.357 36.6815 45.357 39.6405C45.357 42.5994 42.9582 44.9981 39.9993 44.9981C37.0404 44.9981 34.6416 42.5994 34.6416 39.6405C34.6416 36.6815 37.0404 34.2828 39.9993 34.2828V34.2828Z" fill="#00D8FF"/>
</g>
<defs>
<clipPath id="clip0_25_7">
<rect width="60" height="53.4362" fill="white" transform="translate(10 13)"/>
</clipPath>
</defs>
</svg>
