<svg width="80" height="80" viewBox="0 0 80 80" fill="none" xmlns="http://www.w3.org/2000/svg">
<rect width="80" height="80" rx="40" fill="#4253FF"/>
<path d="M49.67 34.2667C49.67 34.2667 46.4267 44.4383 46.1617 45.2783C45.3449 38.9035 44.5205 32.5296 43.6883 26.1567C38.1617 26.1567 35.2067 30.09 33.645 34.2417L29.37 45.3033C29.345 44.51 28.77 34.3617 28.77 34.3617C28.43 29.275 23.77 26.1783 20 26.1783L24.565 53.845C30.355 53.82 33.4767 49.91 35.1117 45.7583C35.1117 45.7583 38.595 36.7617 38.7383 36.3533C38.7633 36.7367 41.2383 53.8433 41.2383 53.8433C47.0517 53.8433 50.175 50.1733 51.855 46.1667L60 26.18C54.2583 26.18 51.2317 30.09 49.67 34.265V34.2667Z" fill="white"/>
</svg>
